<?xml version="1.0" encoding="utf-8"?>
  <!DOCTYPE svg PUBLIC "-//W3C//DTD SVG 1.1//EN" "http://www.w3.org/Graphics/SVG/1.1/DTD/svg11.dtd">
  <svg version="1.1" xmlns="http://www.w3.org/2000/svg" xmlns:xlink="http://www.w3.org/1999/xlink" x="0px" y="0px" width="24px" height="24px" viewBox="0 0 24 24" enable-background="new 0 0 24 24" xml:space="preserve"><g transform="translate(0, 0)"><path fill="#f93e3e" d="M22.885,21.534l-10-19c-0.346-0.657-1.424-0.657-1.77,0l-10,19c-0.163,0.31-0.152,0.683,0.028,0.982
	C1.325,22.817,1.649,23,2,23h20c0.351,0,0.675-0.183,0.856-0.483C23.037,22.217,23.048,21.844,22.885,21.534z M12,20
	c-0.552,0-1-0.448-1-1c0-0.552,0.448-1,1-1s1,0.448,1,1C13,19.552,12.552,20,12,20z M13,16h-2V9h2V16z"></path></g></svg>